<svg width="64" height="64" viewBox="0 0 64 64" fill="none" xmlns="http://www.w3.org/2000/svg">
  <rect x="4" y="4" width="56" height="56" rx="18" fill="#0F766E"/>
  <circle cx="32" cy="29" r="17" fill="white"/>
  <circle cx="32" cy="29" r="13" stroke="#D9E4E1" stroke-width="3"/>
  <path d="M32 16C39.1797 16 45 21.8203 45 29H32V16Z" fill="#E5B84E"/>
  <path d="M45 31C44.1247 38.2231 38.0277 43.8 30.5 43.8C23.6221 43.8 17.9142 39.1421 16.3147 32.8H45V31Z" fill="#9FD8C7"/>
  <path d="M29.7 16.2C23.2894 17.1272 18.1331 21.8797 17.0017 28.2457H30.3482L29.7 16.2Z" fill="#4CA69D"/>
  <path d="M35.2244 19.3137C38.349 17.8579 40.8454 18.3456 42.7135 20.7768C39.5858 22.4572 37.1156 22.0153 35.2244 19.3137Z" fill="#0F766E"/>
  <path d="M32.4051 22.9689C32.3957 20.0475 33.7424 17.8606 36.4138 16.4802C36.6214 19.4206 35.3088 21.6272 32.4051 22.9689Z" fill="#34A892"/>
</svg>
