<svg width="512" height="512" viewBox="0 0 512 512" fill="none" xmlns="http://www.w3.org/2000/svg">
  <defs>
    <linearGradient id="bg" x1="72" y1="68" x2="430" y2="454" gradientUnits="userSpaceOnUse">
      <stop stop-color="#0F766E"/>
      <stop offset="0.55" stop-color="#12897C"/>
      <stop offset="1" stop-color="#E5B84E"/>
    </linearGradient>
    <linearGradient id="plate" x1="134" y1="124" x2="378" y2="388" gradientUnits="userSpaceOnUse">
      <stop stop-color="white"/>
      <stop offset="1" stop-color="#F4F7F6"/>
    </linearGradient>
    <filter id="shadow" x="44" y="48" width="424" height="424" filterUnits="userSpaceOnUse" color-interpolation-filters="sRGB">
      <feFlood flood-opacity="0" result="BackgroundImageFix"/>
      <feColorMatrix in="SourceAlpha" type="matrix" values="0 0 0 0 0 0 0 0 0 0 0 0 0 0 0 0 0 0 127 0" result="hardAlpha"/>
      <feOffset dy="22"/>
      <feGaussianBlur stdDeviation="18"/>
      <feColorMatrix type="matrix" values="0 0 0 0 0.0666667 0 0 0 0 0.14902 0 0 0 0 0.145098 0 0 0 0.18 0"/>
      <feBlend mode="normal" in2="BackgroundImageFix" result="effect1_dropShadow_1_2"/>
      <feBlend mode="normal" in="SourceGraphic" in2="effect1_dropShadow_1_2" result="shape"/>
    </filter>
  </defs>

  <rect x="56" y="56" width="400" height="400" rx="112" fill="url(#bg)"/>

  <g filter="url(#shadow)">
    <circle cx="256" cy="228" r="118" fill="url(#plate)"/>
    <circle cx="256" cy="228" r="95" stroke="#D8E4E1" stroke-width="18"/>

    <path d="M256 133C304.6 133 344 172.4 344 221H256V133Z" fill="#F0C35B"/>
    <path d="M344 235C341.1 282.2 303 319 256 319C209 319 170.9 282.2 168 235H344Z" fill="#9FD8C7"/>
    <path d="M242 221H168C171.2 176.3 207.1 140.9 251.9 138.2L242 221Z" fill="#4CA69D"/>

    <circle cx="256" cy="228" r="23" fill="#FEFEFE"/>
    <path d="M275.341 164.311C293.494 158.539 306.885 161.987 315.515 174.655C297.258 181.305 283.958 178.043 275.341 164.311Z" fill="#0F766E"/>
    <path d="M259.654 183.614C258.362 168.689 264.415 157.766 277.812 151.354C280.197 166.301 274.266 177.291 259.654 183.614Z" fill="#34A892"/>
  </g>

  <rect x="145" y="365" width="222" height="34" rx="17" fill="rgba(255,255,255,0.16)"/>
  <path d="M173 382H207" stroke="white" stroke-width="12" stroke-linecap="round"/>
  <path d="M237 382H275" stroke="white" stroke-width="12" stroke-linecap="round"/>
  <path d="M305 382H339" stroke="#FFF2C7" stroke-width="12" stroke-linecap="round"/>
</svg>
